<svg xmlns="http://www.w3.org/2000/svg" width="24" height="24" viewBox="0 0 24 24" fill="none">
  <path d="M8.1911 13.5203L8.19711 13.4931C8.19957 13.4819 8.20306 13.4571 8.1949 13.4065C8.18297 13.3517 8.17266 13.2968 8.16504 13.2562C8.16337 13.2473 8.16183 13.2391 8.16043 13.2317C8.15026 13.1783 8.14376 13.1479 8.13762 13.1251C7.93504 12.3826 7.62159 11.6492 7.24916 10.9011L7.24909 10.9009C6.4365 9.26784 5.49131 7.67367 4.49553 6.0783C3.8354 7.1311 3.19849 8.18399 2.60934 9.2506L8.1911 13.5203ZM8.1911 13.5203L8.187 13.5479M8.1911 13.5203L8.187 13.5479M4.24972 5.6852L4.24937 5.68542C4.24714 5.6819 4.246 5.68032 4.246 5.68035C4.246 5.68037 4.2469 5.68168 4.24876 5.68401L4.4756 5.54136L4.47562 5.54135L4.49271 5.5306L4.4757 5.51982L4.47568 5.51981L4.06544 5.2599M4.24972 5.6852C4.25822 5.69565 4.28153 5.72145 4.3219 5.74717C4.35414 5.76771 4.3881 5.78231 4.41994 5.79102C4.45058 5.79939 4.47066 5.79998 4.47467 5.8C4.47468 5.8 4.47469 5.8 4.4747 5.8C4.48798 5.80004 4.52211 5.79831 4.56843 5.78384C4.61651 5.76882 4.66118 5.74524 4.69865 5.71727C4.71437 5.70553 4.72698 5.69439 4.73658 5.6851M4.24972 5.6852L4.4756 5.54255L4.47562 5.54254L4.49362 5.53117L4.73658 5.6851M4.24972 5.6852L4.73658 5.6851M4.06544 5.2599L4.47568 5.51918L4.4757 5.51919L4.49323 5.53027L4.92577 5.25827L4.49414 5.53085L4.73722 5.68448C4.74873 5.67328 4.75579 5.66484 4.75857 5.66138C4.75938 5.66038 4.75983 5.6598 4.75983 5.6598C4.75986 5.65982 4.75464 5.66689 4.74124 5.68805L4.73658 5.6851M4.06544 5.2599C4.15571 5.11743 4.2501 4.99918 4.47756 5M4.06544 5.2599L4.47756 5M4.47756 5C4.70708 5.00083 4.82984 5.10635 4.92578 5.25826C6.01616 6.99217 7.06785 8.74086 7.96532 10.5446C8.34959 11.3165 8.68794 12.1023 8.90973 12.9157C8.92712 12.9801 8.93964 13.0466 8.95219 13.1133L8.95219 13.1133L4.47756 5ZM8.187 13.5479C8.07309 14.3152 7.70708 14.9627 6.92909 15.4793L6.92892 15.4795M8.187 13.5479L6.92892 15.4795M6.92892 15.4795C6.11841 16.018 5.17422 16.2785 4.13562 16.1792M6.92892 15.4795L4.13562 16.1792M15.8134 13.3378L15.8072 13.372C15.7977 13.4249 15.7971 13.482 15.8084 13.548L15.8183 13.6058L15.8197 13.6645C15.8229 13.7993 15.8525 13.9432 15.9143 14.1042L15.9145 14.1048C16.1953 14.8378 16.7554 15.4293 17.6889 15.8399L17.6893 15.84C18.1817 16.0569 18.7017 16.1891 19.2548 16.1989L19.255 16.1989C19.7317 16.2074 20.1723 16.1682 20.5936 16.062L20.5936 16.062C21.9387 15.7229 22.6978 15.0708 23.0548 14.1433L23.0551 14.1427C23.0558 14.1409 23.0594 14.1308 23.0664 14.1031C23.0699 14.0894 23.0735 14.0737 23.0783 14.0531C23.0794 14.048 23.0808 14.042 23.0822 14.0355C23.0859 14.0193 23.0903 13.9998 23.0944 13.9824C23.1556 13.72 23.2 13.5245 23.2 13.4156C23.2 13.291 23.1823 13.2274 23.1039 12.9678C22.9298 12.3953 22.6856 11.8297 22.4082 11.2318L22.4081 11.2315C22.0612 10.483 21.6667 9.74521 21.2461 9.0033L15.8134 13.3378ZM15.8134 13.3378L15.8166 13.3033M15.8134 13.3378L15.8166 13.3033M15.8166 13.3033C15.8539 12.8967 16.0222 12.495 16.2571 11.9466L16.2572 11.9465M15.8166 13.3033L16.2572 11.9465M16.2572 11.9465C16.8435 10.5773 17.605 9.26144 18.3947 7.89657C18.4536 7.79486 18.5126 7.69289 18.5717 7.5906L18.5718 7.59042M16.2572 11.9465L18.5718 7.59042M18.5718 7.59042C18.8031 7.18983 19.0419 6.81352 19.2904 6.42189C19.3615 6.30972 19.4335 6.1963 19.5063 6.0807M18.5718 7.59042L19.5063 6.0807M19.5063 6.0807C19.6536 6.31354 19.7974 6.54616 19.9367 6.77934C19.9907 6.86971 20.0446 6.95987 20.0984 7.04987C20.49 7.70514 20.8763 8.35139 21.246 9.00317L19.5063 6.0807ZM4.13562 16.1792C2.52027 16.0243 1.5165 15.3393 0.972732 14.2502L4.13562 16.1792ZM0.928175 14.1354C0.946666 14.1916 0.960494 14.2256 0.972635 14.25L0.928175 14.1354ZM0.928175 14.1354C0.845114 13.883 0.8 13.6354 0.8 13.4053M0.928175 14.1354L0.8 13.4053M0.8 13.4053C0.8 13.2738 0.819229 13.1422 0.857131 13.0149M0.8 13.4053L0.857131 13.0149M0.857131 13.0149C0.935841 12.7505 1.00774 12.5175 1.09671 12.2945M0.857131 13.0149L1.09671 12.2945M1.09671 12.2945C1.50514 11.2735 2.04034 10.2816 2.60921 9.25083L1.09671 12.2945ZM19.7691 5.65878C19.7702 5.65708 19.7708 5.65631 19.7708 5.65635C19.7708 5.65639 19.7702 5.65724 19.7691 5.65878Z" stroke="#2E424D" stroke-width="1.6"/>
  <path fill-rule="evenodd" clip-rule="evenodd" d="M11.2 3.71429H4.85714C4.38376 3.71429 4 3.33053 4 2.85714C4 2.38376 4.38376 2 4.85714 2H19.1429C19.6162 2 20 2.38376 20 2.85714C20 3.33053 19.6162 3.71429 19.1429 3.71429H12.8V19.2857H17.1429C17.6162 19.2857 18 19.6695 18 20.1429C18 20.6162 17.6162 21 17.1429 21H6.85714C6.38376 21 6 20.6162 6 20.1429C6 19.6695 6.38376 19.2857 6.85714 19.2857H11.2V3.71429Z" fill="#2E424D"/>
</svg>