<svg xmlns="http://www.w3.org/2000/svg" width="20" height="20" viewBox="0 0 20 20" fill="none">
<path d="M3.33334 5.83333C3.33334 5.61232 3.42113 5.40036 3.57741 5.24408C3.73369 5.0878 3.94566 5 4.16667 5H15.8333C16.0543 5 16.2663 5.0878 16.4226 5.24408C16.5789 5.40036 16.6667 5.61232 16.6667 5.83333C16.6667 6.05435 16.5789 6.26631 16.4226 6.42259C16.2663 6.57887 16.0543 6.66667 15.8333 6.66667H4.16667C3.94566 6.66667 3.73369 6.57887 3.57741 6.42259C3.42113 6.26631 3.33334 6.05435 3.33334 5.83333ZM3.33334 10C3.33334 9.77899 3.42113 9.56702 3.57741 9.41074C3.73369 9.25446 3.94566 9.16667 4.16667 9.16667H15.8333C16.0543 9.16667 16.2663 9.25446 16.4226 9.41074C16.5789 9.56702 16.6667 9.77899 16.6667 10C16.6667 10.221 16.5789 10.433 16.4226 10.5893C16.2663 10.7455 16.0543 10.8333 15.8333 10.8333H4.16667C3.94566 10.8333 3.73369 10.7455 3.57741 10.5893C3.42113 10.433 3.33334 10.221 3.33334 10ZM3.33334 14.1667C3.33334 13.9457 3.42113 13.7337 3.57741 13.5774C3.73369 13.4211 3.94566 13.3333 4.16667 13.3333H15.8333C16.0543 13.3333 16.2663 13.4211 16.4226 13.5774C16.5789 13.7337 16.6667 13.9457 16.6667 14.1667C16.6667 14.3877 16.5789 14.5996 16.4226 14.7559C16.2663 14.9122 16.0543 15 15.8333 15H4.16667C3.94566 15 3.73369 14.9122 3.57741 14.7559C3.42113 14.5996 3.33334 14.3877 3.33334 14.1667Z" fill="#2E424D" stroke="#2E424D" stroke-width="0.4"/>
</svg>