<svg xmlns="http://www.w3.org/2000/svg" width="24" height="24" viewBox="0 0 24 24" fill="none">
  <g clip-path="url(#clip0_378_391)">
    <path d="M23.546 6.23163C23.4778 6.13474 23.3873 6.05566 23.2821 6.00105C23.177 5.94644 23.0602 5.9179 22.9417 5.91782H7.15766L5.96286 1.79758C5.49432 0.175147 4.38094 0 3.92429 0H1.73854C1.33021 0 1 0.330586 1 0.738519C1 1.14645 1.33059 1.47701 1.73852 1.47701H3.92389C4.02467 1.47701 4.3322 1.47701 4.54195 2.20177L8.65215 17.3072C8.7414 17.6259 9.03182 17.846 9.36313 17.846H19.4027C19.7143 17.846 19.9924 17.6508 20.0977 17.3574L23.6364 6.90618C23.7178 6.67972 23.6839 6.4276 23.546 6.23163ZM18.883 16.3694H9.92369L7.57277 7.39523H21.8917L18.883 16.3694ZM17.4182 19.3428C16.3911 19.3428 15.5589 20.175 15.5589 21.2021C15.5589 22.2292 16.3911 23.0614 17.4182 23.0614C18.4453 23.0614 19.2775 22.2292 19.2775 21.2021C19.2775 20.175 18.4453 19.3428 17.4182 19.3428ZM10.7247 19.3428C9.6976 19.3428 8.86537 20.175 8.86537 21.2021C8.86537 22.2292 9.6976 23.0614 10.7247 23.0614C11.7518 23.0614 12.584 22.2292 12.584 21.2021C12.584 20.175 11.7518 19.3428 10.7247 19.3428Z" fill="#2E424D" stroke="#2E424D" stroke-width="0.4"/>
  </g>
  <defs>
    <clipPath id="clip0_378_391">
      <rect width="24" height="24" fill="white"/>
    </clipPath>
  </defs>
</svg>