<svg xmlns="http://www.w3.org/2000/svg" width="20" height="11" viewBox="0 0 20 11" fill="none">
<path d="M13.1117 7.20874L13.1071 7.23437C13.0977 7.28665 13.0973 7.34208 13.108 7.40416L13.1154 7.44752L13.1164 7.4915C13.1193 7.61274 13.1459 7.74024 13.1997 7.88029L13.1998 7.88069C13.4411 8.51047 13.9221 9.0155 14.7139 9.36379L14.7142 9.3639C15.1313 9.54761 15.5734 9.66029 16.0445 9.66858L16.0446 9.66859C16.4462 9.67574 16.8195 9.64277 17.1776 9.5525L17.1776 9.55249C18.3142 9.26599 18.9675 8.71068 19.2746 7.91289L19.2747 7.91244C19.2813 7.89539 19.2845 7.88146 19.2967 7.82853C19.3003 7.81281 19.3047 7.79366 19.3103 7.76997C19.3604 7.555 19.4 7.38293 19.4 7.28254C19.4 7.16741 19.3821 7.10537 19.3169 6.88968C19.1704 6.40814 18.9654 5.93343 18.734 5.43462L18.7339 5.43445C18.4438 4.80837 18.1141 4.19185 17.7631 3.57272L13.1117 7.20874ZM13.1117 7.20874L13.1141 7.18281M13.1117 7.20874L13.1141 7.18281M13.1141 7.18281C13.1464 6.83158 13.2915 6.48682 13.4863 6.0321L13.4864 6.032M13.1141 7.18281L13.4864 6.032M13.4864 6.032C13.9767 4.88721 14.6131 3.78729 15.2708 2.65072C15.32 2.5657 15.3693 2.48048 15.4187 2.39501L15.4188 2.39487M13.4864 6.032L15.4188 2.39487M15.4188 2.39487C15.612 2.06017 15.8124 1.74429 16.0202 1.41684C16.0974 1.29509 16.1757 1.17174 16.255 1.04523M15.4188 2.39487L16.255 1.04523M16.255 1.04523C16.3977 1.2695 16.537 1.49353 16.6713 1.71827C16.7162 1.79361 16.7612 1.86879 16.806 1.94384C17.1323 2.48973 17.4546 3.02887 17.763 3.57263L16.255 1.04523ZM6.89603 7.36148L6.89152 7.38191L6.88845 7.40261C6.7908 8.06029 6.47551 8.61665 5.81112 9.05785L5.81099 9.05794C5.12325 9.5149 4.32118 9.73618 3.43982 9.6519C2.07527 9.521 1.21609 8.93956 0.750882 8.00764C0.73876 7.98332 0.726079 7.9516 0.710153 7.9032C0.639211 7.68762 0.6 7.47418 0.6 7.27394C0.6 7.15784 0.616973 7.04182 0.65038 6.92959C0.715989 6.70919 0.776656 6.51239 0.852047 6.32347C1.19413 5.46831 1.64202 4.63842 2.11599 3.77966C2.62462 2.85879 3.17574 1.9505 3.74641 1.04252C4.59735 2.40283 5.40671 3.76274 6.10059 5.15728L6.10064 5.15739C6.41199 5.78282 6.67528 6.39834 6.8457 7.02301C6.85152 7.04465 6.85733 7.07204 6.86585 7.11687C6.86706 7.12324 6.86838 7.13026 6.8698 7.13781C6.87625 7.17216 6.88475 7.21745 6.89459 7.26245C6.90281 7.31228 6.90029 7.34215 6.89603 7.36148ZM16.0927 0.792437C16.0927 0.792443 16.0927 0.792449 16.0927 0.792455C16.0927 0.792426 16.0927 0.792411 16.0927 0.792411L16.0927 0.792437ZM16.4211 0.778159C16.4211 0.778175 16.4208 0.778599 16.4202 0.779382L16.4211 0.778159Z" stroke="#2E424D" stroke-width="1.2"/>
</svg>