<svg xmlns="http://www.w3.org/2000/svg" width="16" height="17" viewBox="0 0 16 17" fill="none">
<path d="M3.95 3.61719H12.05C12.5481 3.61715 13.0273 3.80772 13.3893 4.14979C13.7514 4.49186 13.9688 4.9595 13.997 5.45679L14 5.56719V12.1672C14 12.6653 13.8095 13.1445 13.4674 13.5065C13.1253 13.8686 12.6577 14.086 12.1604 14.1142L12.05 14.1172H3.95C3.45192 14.1172 2.9727 13.9267 2.61066 13.5846C2.24862 13.2425 2.0312 12.7749 2.003 12.2776L2 12.1672V5.56719C1.99997 5.06911 2.19053 4.58989 2.5326 4.22785C2.87467 3.86581 3.34232 3.64839 3.8396 3.62019L3.95 3.61719ZM13.1 6.84099L8.21 9.41499C8.15479 9.44416 8.0941 9.46151 8.03182 9.46596C7.96953 9.4704 7.907 9.46183 7.8482 9.44079L7.7906 9.41559L2.9 6.84159V12.1672C2.90001 12.4307 2.9991 12.6846 3.17761 12.8784C3.35611 13.0723 3.60098 13.1919 3.8636 13.2136L3.95 13.2172H12.05C12.3136 13.2172 12.5676 13.118 12.7614 12.9394C12.9553 12.7607 13.0749 12.5157 13.0964 12.253L13.1 12.1672V6.84099ZM12.05 4.51719H3.95C3.68649 4.5172 3.43261 4.61629 3.23877 4.7948C3.04492 4.9733 2.92528 5.21817 2.9036 5.48079L2.9 5.56719V5.82459L8 8.50839L13.1 5.82399V5.56719C13.1 5.30358 13.0008 5.04962 12.8222 4.85576C12.6435 4.6619 12.3985 4.54233 12.1358 4.52079L12.05 4.51719Z" fill="white"/>
</svg>