

<svg xmlns="http://www.w3.org/2000/svg" width="27" height="15" viewBox="0 0 27 15" fill="none">
<path d="M1.48593 7.81001C1.48593 7.34057 1.86649 6.96001 2.33593 6.96001H8.7237C9.19314 6.96001 9.5737 7.34057 9.5737 7.81001C9.5737 8.27946 9.19314 8.66001 8.7237 8.66001H2.33593C1.86649 8.66001 1.48593 8.27946 1.48593 7.81001ZM2.12277 12.18C2.12277 12.7323 2.57049 13.18 3.12277 13.18H9.91368C10.3942 13.18 10.7837 13.5695 10.7837 14.05C10.7837 14.5305 10.3942 14.92 9.91368 14.92H0.999999C0.447714 14.92 0 14.4723 0 13.92V1.92001C0 1.36773 0.447715 0.920013 1 0.920013H9.61649C10.097 0.920013 10.4865 1.30953 10.4865 1.79001C10.4865 2.2705 10.097 2.66001 9.61649 2.66001H3.12277C2.57049 2.66001 2.12277 3.10773 2.12277 3.66001V12.18Z" fill="#B3BBBD"/>
<path d="M15.2209 14.92C14.6686 14.92 14.2209 14.4723 14.2209 13.92V1.92001C14.2209 1.36773 14.6686 0.920013 15.2209 0.920013H15.5008C15.7932 0.920013 16.071 1.04801 16.261 1.27032L25.3841 11.945C25.5438 12.1319 25.411 12.42 25.1652 12.42C25.0061 12.42 24.8772 12.2911 24.8772 12.1321V1.92001C24.8772 1.36773 25.3249 0.920013 25.8772 0.920013H26C26.5523 0.920013 27 1.36773 27 1.92001V13.92C27 14.4723 26.5523 14.92 26 14.92H25.7201C25.4277 14.92 25.1499 14.792 24.9599 14.5697L15.8369 3.89502C15.6772 3.70816 15.8099 3.42001 16.0557 3.42001C16.2148 3.42001 16.3437 3.54893 16.3437 3.70795V13.92C16.3437 14.4723 15.896 14.92 15.3437 14.92H15.2209Z" fill="#B3BBBD"/>
</svg>