<svg xmlns="http://www.w3.org/2000/svg" width="24" height="25" viewBox="0 0 24 25" fill="none">
  <path d="M0 12.6172C0 19.2446 5.37258 24.6172 12 24.6172C18.6274 24.6172 24 19.2446 24 12.6172C24 5.98977 18.6274 0.617188 12 0.617188C5.37258 0.617188 0 5.98977 0 12.6172Z" fill="#F4F6F7"/>
  <path d="M18 12.6172C18 9.31719 15.3 6.61719 12 6.61719C8.7 6.61719 6 9.31719 6 12.6172C6 15.6172 8.175 18.0922 11.025 18.5422V14.3422H9.525V12.6172H11.025V11.2672C11.025 9.76719 11.925 8.94219 13.275 8.94219C13.95 8.94219 14.625 9.09219 14.625 9.09219V10.5922H13.875C13.125 10.5922 12.9 11.0422 12.9 11.4922V12.6172H14.55L14.25 14.3422H12.825V18.6172C15.825 18.1672 18 15.6172 18 12.6172Z" fill="#2E424D"/>
</svg>