<svg xmlns="http://www.w3.org/2000/svg" width="24" height="24" viewBox="0 0 24 24" fill="none">
  <path d="M16.1911 3C14.2547 3 12.5593 3.8327 11.5025 5.24022C10.4457 3.8327 8.75026 3 6.81387 3C5.27247 3.00174 3.7947 3.61483 2.70476 4.70476C1.61483 5.7947 1.00174 7.27247 1 8.81387C1 15.3779 10.7326 20.691 11.1471 20.9105C11.2563 20.9692 11.3784 21 11.5025 21C11.6265 21 11.7486 20.9692 11.8579 20.9105C12.2723 20.691 22.005 15.3779 22.005 8.81387C22.0032 7.27247 21.3901 5.7947 20.3002 4.70476C19.2103 3.61483 17.7325 3.00174 16.1911 3ZM11.5025 19.3914C9.7902 18.3936 2.50035 13.8485 2.50035 8.81387C2.50184 7.67031 2.95678 6.57402 3.7654 5.7654C4.57402 4.95678 5.67031 4.50184 6.81387 4.50035C8.63774 4.50035 10.169 5.47183 10.8086 7.0322C10.8651 7.16979 10.9612 7.28747 11.0848 7.37029C11.2083 7.45312 11.3537 7.49734 11.5025 7.49734C11.6512 7.49734 11.7966 7.45312 11.9202 7.37029C12.0437 7.28747 12.1399 7.16979 12.1964 7.0322C12.8359 5.46902 14.3672 4.50035 16.1911 4.50035C17.3346 4.50184 18.4309 4.95678 19.2396 5.7654C20.0482 6.57402 20.5031 7.67031 20.5046 8.81387C20.5046 13.841 13.2129 18.3927 11.5025 19.3914Z" fill="#2E424D" stroke="#2E424D" stroke-width="0.4"/>
</svg>