<svg xmlns="http://www.w3.org/2000/svg" width="24" height="25" viewBox="0 0 24 25" fill="none">
<path d="M0 12.6172C0 19.2446 5.37258 24.6172 12 24.6172C18.6274 24.6172 24 19.2446 24 12.6172C24 5.98977 18.6274 0.617188 12 0.617188C5.37258 0.617188 0 5.98977 0 12.6172Z" fill="#F4F6F7"/>
<path d="M12 7.51721C13.65 7.51721 13.875 7.51721 14.55 7.51721C15.15 7.51721 15.45 7.66721 15.675 7.74221C15.975 7.89221 16.2 7.96721 16.425 8.19221C16.65 8.41721 16.8 8.64221 16.875 8.94221C16.95 9.16721 17.025 9.46721 17.1 10.0672C17.1 10.7422 17.1 10.8922 17.1 12.6172C17.1 14.3422 17.1 14.4922 17.1 15.1672C17.1 15.7672 16.95 16.0672 16.875 16.2922C16.725 16.5922 16.65 16.8172 16.425 17.0422C16.2 17.2672 15.975 17.4172 15.675 17.4922C15.45 17.5672 15.15 17.6422 14.55 17.7172C13.875 17.7172 13.725 17.7172 12 17.7172C10.275 17.7172 10.125 17.7172 9.45002 17.7172C8.85002 17.7172 8.55002 17.5672 8.32502 17.4922C8.02502 17.3422 7.80002 17.2672 7.57502 17.0422C7.35002 16.8172 7.20002 16.5922 7.12502 16.2922C7.05002 16.0672 6.97502 15.7672 6.90002 15.1672C6.90002 14.4922 6.90002 14.3422 6.90002 12.6172C6.90002 10.8922 6.90002 10.7422 6.90002 10.0672C6.90002 9.46721 7.05002 9.16721 7.12502 8.94221C7.27502 8.64221 7.35002 8.41721 7.57502 8.19221C7.80002 7.96721 8.02502 7.81721 8.32502 7.74221C8.55002 7.66721 8.85002 7.59221 9.45002 7.51721C10.125 7.51721 10.35 7.51721 12 7.51721ZM12 6.39221C10.275 6.39221 10.125 6.39221 9.45002 6.39221C8.77502 6.39221 8.32502 6.54221 7.95002 6.69221C7.57502 6.84221 7.20002 7.06721 6.82502 7.44221C6.45002 7.81721 6.30002 8.11721 6.07502 8.56721C5.92502 8.94221 5.85002 9.39221 5.77502 10.0672C5.77502 10.7422 5.77502 10.9672 5.77502 12.6172C5.77502 14.3422 5.77502 14.4922 5.77502 15.1672C5.77502 15.8422 5.92502 16.2922 6.07502 16.6672C6.22502 17.0422 6.45002 17.4172 6.82502 17.7922C7.20002 18.1672 7.50002 18.3172 7.95002 18.5422C8.32502 18.6922 8.77502 18.7672 9.45002 18.8422C10.125 18.8422 10.35 18.8422 12 18.8422C13.65 18.8422 13.875 18.8422 14.55 18.8422C15.225 18.8422 15.675 18.6922 16.05 18.5422C16.425 18.3922 16.8 18.1672 17.175 17.7922C17.55 17.4172 17.7 17.1172 17.925 16.6672C18.075 16.2922 18.15 15.8422 18.225 15.1672C18.225 14.4922 18.225 14.2672 18.225 12.6172C18.225 10.9672 18.225 10.7422 18.225 10.0672C18.225 9.39221 18.075 8.94221 17.925 8.56721C17.775 8.19221 17.55 7.81721 17.175 7.44221C16.8 7.06721 16.5 6.91721 16.05 6.69221C15.675 6.54221 15.225 6.46721 14.55 6.39221C13.875 6.39221 13.725 6.39221 12 6.39221Z" fill="#2E424D"/>
<path d="M12 9.39221C10.2 9.39221 8.77502 10.8172 8.77502 12.6172C8.77502 14.4172 10.2 15.8422 12 15.8422C13.8 15.8422 15.225 14.4172 15.225 12.6172C15.225 10.8172 13.8 9.39221 12 9.39221ZM12 14.7172C10.875 14.7172 9.90002 13.8172 9.90002 12.6172C9.90002 11.4922 10.8 10.5172 12 10.5172C13.125 10.5172 14.1 11.4172 14.1 12.6172C14.1 13.7422 13.125 14.7172 12 14.7172Z" fill="#2E424D"/>
<path d="M15.3 10.0672C15.7142 10.0672 16.05 9.73143 16.05 9.31721C16.05 8.903 15.7142 8.56721 15.3 8.56721C14.8858 8.56721 14.55 8.903 14.55 9.31721C14.55 9.73143 14.8858 10.0672 15.3 10.0672Z" fill="#2E424D"/>
</svg>