<svg xmlns="http://www.w3.org/2000/svg" width="200" height="38" viewBox="0 0 200 38" fill="none">
  <path fill-rule="evenodd" clip-rule="evenodd" d="M2.65913 36.8129H2.65898C2.14803 36.8199 1.6656 36.8266 1.18635 36.7965C0.299903 36.7427 -0.143333 36.145 0.0413441 35.2989C0.148792 34.7986 0.276395 34.2983 0.427494 33.808C0.551731 33.4085 0.736402 33.0626 1.26021 33.0761C1.70344 33.0895 2.05936 32.9451 2.1198 32.4246C2.17688 31.9311 1.99221 31.5617 1.56578 31.3132C1.48588 31.2673 1.3991 31.2326 1.31198 31.1978C1.227 31.1638 1.14169 31.1297 1.06212 31.0849C0.796853 30.9372 0.534942 30.7491 0.615528 30.3999C0.704441 30.0179 1.03236 30.0558 1.32053 30.0891L1.33745 30.091C5.06121 30.5007 6.11555 29.3456 6.58563 25.5883C6.62098 25.3074 6.65668 25.0265 6.69238 24.7456L6.69249 24.7448C6.90433 23.0781 7.1164 21.4097 7.25718 19.729C7.39748 18.075 7.68315 16.4338 7.96909 14.791C8.16901 13.6424 8.36908 12.493 8.51968 11.3379C8.68043 10.1142 8.89925 8.9004 9.11737 7.69047L9.11748 7.68986C9.18181 7.33306 9.24607 6.97659 9.30877 6.62029C9.46801 5.72073 9.6546 4.82288 9.84138 3.92415L9.84139 3.92411L9.84139 3.92408L9.8414 3.92405L9.84141 3.924C10.0248 3.04145 10.2084 2.15805 10.3664 1.27136C10.4605 0.750911 10.9003 0.46887 11.4443 0.505805C12.4484 0.570406 13.4332 0.422961 14.4188 0.275397C15.2262 0.154512 16.0341 0.0335454 16.8536 0.0290093C17.5185 0.0256516 17.8408 0.196887 17.8442 0.858366C17.8442 1.30831 18.1262 1.55006 18.4889 1.65079C18.828 1.74481 19.1033 1.52321 19.3317 1.26466L19.37 1.22158C19.5492 1.02 19.733 0.813153 19.9461 0.650186C20.2114 0.445363 20.5203 0.274122 20.8527 0.529312C21.1617 0.767713 21.1784 1.11357 21.0576 1.43591C20.233 3.67045 19.7074 5.98413 19.1814 8.29918C18.8206 9.88728 18.4597 11.476 18.002 13.0403C17.4345 14.9811 17.092 17.0965 16.7932 19.1615C16.6018 20.471 16.313 21.7638 15.8027 22.9961C15.5911 23.5098 15.4837 24.0471 15.6751 24.6044C15.7322 24.7723 15.806 25.0174 15.7288 25.135C15.1901 25.9557 15.196 26.8556 15.202 27.7495C15.2055 28.2818 15.2091 28.812 15.0975 29.3221C14.661 31.3233 13.8115 33.1264 11.7801 34.1002C11.3022 34.3284 10.8781 34.645 10.4522 34.963C9.93843 35.3465 9.42196 35.7321 8.8051 35.9671C7.02213 36.6487 5.19551 36.9845 3.36889 36.8065C3.12521 36.8065 2.8896 36.8098 2.65977 36.8129H2.65961H2.65945H2.65929H2.65913ZM118.839 0.131059C120.303 0.173131 121.77 0.145624 123.237 0.118143C125.164 0.0820203 127.089 0.0459425 128.999 0.167989C132.703 0.40639 136.155 1.65882 138.092 5.23483C139.143 7.17562 139.308 9.23728 138.865 11.4736C138.492 13.3673 137.877 15.0865 136.736 16.5706C136.647 16.6856 136.559 16.801 136.471 16.9165C135.607 18.0487 134.734 19.192 133.606 20.103C132.354 21.117 132.183 21.5905 132.807 23.0478C133.808 25.3848 134.55 27.8073 135.291 30.2301L135.291 30.2304C135.83 31.9916 136.369 33.7529 137.008 35.4815C137.448 36.6702 137.038 37.241 135.782 37.5264C134.943 37.7178 134.12 37.8185 133.281 37.4995C132.77 37.3081 132.246 37.3719 131.807 37.7077C131.071 38.2685 130.484 37.8487 130.319 37.241C130.038 36.2008 129.491 35.2884 128.95 34.3858C128.464 33.5751 127.983 32.7723 127.703 31.8921C127.412 30.974 126.98 30.1357 126.55 29.3003C126.148 28.5195 125.748 27.7411 125.464 26.9024C125.231 26.2158 124.785 25.6468 124.334 25.0725L124.334 25.0725C123.948 24.5796 123.559 24.0828 123.298 23.5044C123.053 22.9638 122.213 23.2257 122.062 23.8637L121.961 24.2932L121.961 24.2933L121.961 24.2934L121.961 24.2935L121.961 24.2935L121.961 24.2936L121.961 24.2937L121.961 24.2938C121.423 26.5712 120.885 28.8482 120.538 31.1668C120.484 31.5261 120.39 31.9055 120.209 32.2144C119.776 32.9494 119.614 33.7601 119.452 34.5707C119.35 35.0822 119.247 35.5936 119.077 36.0859C118.923 36.5325 118.758 36.8246 118.261 36.7776C117.761 36.7272 117.731 36.3445 117.734 35.9583C117.738 35.4949 117.707 34.998 117.18 34.8838C116.607 34.7604 116.404 35.2247 116.22 35.6468L116.186 35.7233C115.683 36.8616 114.38 37.2712 113.272 36.65C112.973 36.4821 112.869 36.2303 112.859 35.9214C112.781 33.3793 113.176 30.8864 113.57 28.3933L113.57 28.3932C113.67 27.7611 113.77 27.129 113.863 26.4962C113.926 26.0597 113.994 25.6231 114.062 25.1862C114.299 23.657 114.536 22.1248 114.591 20.5865C114.638 19.2473 114.742 17.9149 114.846 16.5824V16.5823V16.5822V16.582V16.5819V16.5818V16.5817V16.5815C114.906 15.8195 114.966 15.0575 115.014 14.2941C115.05 13.7534 115.166 13.2232 115.283 12.6907C115.386 12.2213 115.489 11.7502 115.538 11.2687C115.609 10.5804 116.25 10.211 116.995 10.154C117.499 10.117 118.023 9.9525 117.986 9.34474C117.946 8.70341 117.385 8.56239 116.841 8.5691C116.583 8.57149 116.326 8.61984 116.07 8.66809C115.967 8.68761 115.863 8.70711 115.76 8.72355C115.253 8.80749 114.934 8.57916 114.675 8.15272C114.413 7.72293 114.484 7.35358 114.823 7.06145C115.578 6.41341 115.592 5.85268 115.182 4.87557C114.716 3.7608 114.84 2.40762 115.159 1.17868C115.317 0.570923 115.713 0.198203 116.418 0.141121C117.23 0.0840393 118.033 0.0874078 118.839 0.131059ZM125.484 17.7408L125.484 17.7408C125.629 17.7131 125.885 17.6641 126.115 17.5612C127.636 16.8728 128.714 15.7043 129.58 14.3109C130.752 12.4171 130.739 9.40854 127.65 8.75041C126.696 8.54559 125.746 8.95525 125.474 9.89206C124.879 11.9336 124.302 13.9851 123.775 16.0435C123.459 17.2858 123.886 17.766 125.393 17.7593C125.413 17.7543 125.444 17.7484 125.483 17.7409L125.483 17.7409L125.484 17.7408ZM47.7853 18.3244C47.8457 22.7969 46.3885 26.7456 43.5109 30.1705C43.249 30.4794 42.987 30.7917 42.7554 31.1208C40.922 33.6995 38.3936 35.459 35.4724 36.3689C32.6687 37.2453 29.6568 37.3528 27.1821 35.3079L27.1764 35.3032C25.9626 34.2972 24.6667 33.2233 24.3616 31.4263C24.3113 31.1271 24.1617 30.8023 24.0096 30.4723L24.0096 30.4723C23.9278 30.2949 23.8454 30.1161 23.7773 29.9388C22.6323 26.9571 23.3845 24.1064 24.1702 21.2188C24.5933 19.6675 25.3051 18.274 26.1445 16.9275C26.2587 16.7429 26.393 16.5246 26.393 16.3198C26.3869 14.1729 27.8374 12.9924 29.2579 11.8363L29.2579 11.8362C29.3882 11.7303 29.5181 11.6245 29.6467 11.5182C29.8538 11.347 30.0374 11.1495 30.2217 10.9512C30.6229 10.5194 31.0278 10.0836 31.6882 9.90647C31.8226 9.8706 31.9541 9.83164 32.0841 9.79314L32.0843 9.79308L32.0844 9.79307C32.7209 9.60457 33.3198 9.42722 34.0252 9.67814C34.6262 9.89304 35.0527 9.55727 35.0594 8.90586C35.0661 8.29139 35.4388 8.12013 35.9156 7.92202C40.5728 5.98459 45.2737 8.81855 46.9962 13.2575C47.3152 14.0768 47.6241 14.923 47.7584 15.7859C47.8492 16.3608 47.827 16.9519 47.8049 17.5423V17.5423V17.5424V17.5425V17.5426V17.5426V17.5427V17.5428C47.7951 17.8039 47.7853 18.0649 47.7853 18.3244ZM40.5124 19.5936C40.687 17.5588 40.0222 15.8933 38.5414 14.5167C38.078 14.0835 37.618 14.1507 37.111 14.2514C36.6174 14.3488 36.4562 14.7114 36.4864 15.1546C36.5267 15.7851 36.1282 16.027 35.6589 16.312L35.6571 16.3131C35.3265 16.5158 34.9724 16.6887 34.6182 16.8616L34.6182 16.8616C33.8465 17.2383 33.0749 17.615 32.5478 18.3009C30.9226 20.4162 29.5627 22.6827 29.6433 25.4965C29.6511 25.7778 29.6412 26.0746 29.6312 26.3741C29.6025 27.2327 29.5731 28.1133 29.959 28.7133C31.4632 31.0603 34.3811 31.2819 36.3991 29.2673C39.0182 26.6516 40.1867 23.2502 40.5124 19.5936ZM158.198 11.7913C159.196 12.5669 158.87 13.0538 158.067 13.6783C158.632 14.1249 159.155 14.0746 159.652 13.957C160.196 13.8362 160.666 13.8899 160.717 14.5043C160.721 14.5519 160.725 14.6001 160.729 14.6487L160.729 14.6507C160.786 15.2804 160.848 15.9766 160.032 16.2974C159.84 16.3746 159.699 16.378 159.562 16.1866C158.78 15.1106 158.606 15.8509 158.466 16.4428L158.466 16.4432C158.457 16.481 158.448 16.5182 158.44 16.5542L158.427 16.6063C158.001 18.2902 157.685 19.9968 157.369 21.7026L157.369 21.7029L157.369 21.7034L157.368 21.7052C157.156 22.8524 156.943 23.9992 156.698 25.1384C156.003 28.3682 155.93 31.6222 155.858 34.8836C155.849 35.2637 155.841 35.6439 155.831 36.0242C155.825 36.407 155.992 36.7327 156.379 36.726C156.817 36.7188 157.249 36.7802 157.681 36.8417C158.26 36.9242 158.841 37.0068 159.441 36.9241C160.351 36.7965 160.838 36.4305 160.935 35.4937L160.936 35.4873C160.983 35.0414 161.046 34.4428 161.707 34.4696C162.315 34.4931 162.59 34.9262 162.644 35.5105C162.688 36.0041 162.913 36.3768 163.443 36.4137C163.674 36.4303 163.911 36.4602 164.147 36.4903C164.774 36.5698 165.406 36.6499 165.962 36.4842C168.493 35.7287 170.837 34.5065 172.586 32.4919C173.966 30.9003 175.226 29.2113 176.169 27.2605C177.16 25.2122 178.086 23.1472 178.466 20.9344C178.976 17.9695 178.056 15.1927 176.794 12.5098C175.447 9.64567 172.919 8.47716 170.108 7.85933C168.226 7.44575 166.317 7.52954 164.404 7.61347C162.931 7.67808 161.456 7.74278 159.991 7.58065C159.822 7.56436 159.637 7.63346 159.469 7.69587L159.454 7.70153C158.598 8.02387 157.51 11.2574 158.198 11.7913ZM169.202 14.7595C170.377 16.3276 171.475 17.9561 171.025 20.0883C171.351 23.3755 169.998 26.0752 168.023 28.5566C167.164 29.6344 165.975 30.2086 164.743 30.6887C164.632 30.7318 164.52 30.7707 164.407 30.8095C164.109 30.9128 163.811 31.0161 163.537 31.1991C163.191 31.4274 162.799 31.3771 162.543 31.048C162.499 30.9903 162.45 30.9371 162.401 30.8843C162.211 30.6788 162.026 30.4787 162.13 30.0407C162.983 26.4378 163.772 22.8215 164.548 19.2018C164.669 18.6344 164.659 18.0266 164.632 17.4424C164.582 16.378 165.058 15.5016 165.616 14.689C166.166 13.8865 168.581 13.9302 169.202 14.7595ZM184.761 36.7422C186.729 36.7008 188.678 36.6598 190.554 36.9998C190.826 36.9998 191.088 37.0075 191.343 37.015C191.928 37.0322 192.473 37.0482 193.012 36.9663C193.72 36.8689 194.566 36.7312 194.54 35.7138C194.516 34.8441 194.724 34.0819 195.084 33.2794C195.893 31.4797 195.339 30.6872 193.385 30.6805C191.84 30.6772 190.292 30.7175 188.744 30.7578C188.341 30.7712 187.942 30.7645 187.905 30.281C187.794 28.8573 188.022 27.4369 188.731 26.2382C189.144 25.5371 189.916 25.5653 190.67 25.5929C190.92 25.602 191.168 25.6111 191.4 25.5935C191.508 25.5862 191.615 25.5931 191.722 25.6C191.763 25.6026 191.803 25.6051 191.843 25.607C193.149 25.6607 194.325 25.1268 195.369 24.4955C195.799 24.2369 195.744 23.7161 195.688 23.1869C195.659 22.9193 195.631 22.6495 195.664 22.4104C195.667 22.3881 195.67 22.3654 195.672 22.3425V22.3423C195.681 22.2549 195.69 22.1652 195.725 22.088C196.205 21.0068 195.456 20.8121 194.687 20.6811C194.453 20.6416 194.211 20.6509 193.968 20.6602C193.839 20.6651 193.711 20.67 193.583 20.6677C190.698 20.6039 190.433 20.1741 191.602 17.4275C191.618 17.39 191.635 17.3522 191.651 17.3142L191.652 17.3134C191.805 16.9707 191.965 16.6134 191.581 16.3295C191.213 16.0599 190.978 16.3273 190.753 16.5836C190.726 16.6146 190.699 16.6455 190.671 16.6753L190.663 16.6843C190.494 16.8705 190.294 17.0898 190.013 16.9708C189.701 16.8398 189.654 16.5343 189.661 16.222C189.681 15.0334 190.329 14.4323 191.518 14.3988C192.035 14.3846 192.555 14.4093 193.075 14.4341C194.274 14.4913 195.474 14.5485 196.655 14.1268C196.957 14.0193 197.363 14.0193 197.719 14.2275C198.092 14.4458 198.478 14.4928 198.767 14.0462C199.046 13.6131 198.881 13.2471 198.545 12.9751C197.676 12.2733 198.062 11.6924 198.727 11.2089C199.637 10.5474 200.14 9.45614 199.966 8.38837C199.875 7.83434 199.58 7.69333 199.052 7.68997C196.775 7.679 194.5 7.64783 192.223 7.61665L192.222 7.61664C191.713 7.60967 191.204 7.60269 190.695 7.59595C189.86 7.58479 189.037 7.73531 188.223 7.8844C187.566 8.00453 186.915 8.12372 186.266 8.15669C183.902 8.27503 183.901 8.32406 183.863 10.4069V10.4076V10.4082C183.86 10.5706 183.856 10.7454 183.852 10.9336C183.847 11.1396 183.883 11.3465 183.92 11.5538L183.92 11.5539C183.955 11.7487 183.99 11.9439 183.99 12.139C183.989 12.1956 183.991 12.2523 183.993 12.309C184.003 12.5924 184.014 12.8749 183.697 13.1295C183.059 13.6466 183.221 14.0429 184.016 14.2376C184.91 14.4525 185.134 15.0435 185.185 15.9568C185.226 16.6739 184.869 17.1335 184.513 17.5901C184.321 17.8368 184.13 18.0826 184.003 18.3676C183.437 19.6311 183.196 20.9909 182.96 22.3247L182.96 22.3253V22.3254L182.96 22.3264L182.959 22.3277C182.917 22.5667 182.875 22.805 182.831 23.0416C182.716 23.6611 182.598 24.2805 182.48 24.9L182.479 24.9033L182.479 24.9038L182.479 24.9039C181.831 28.3059 181.182 31.7134 180.961 35.1833C180.87 36.5902 180.978 36.7547 182.438 36.7681C183.213 36.7748 183.988 36.7585 184.761 36.7422ZM104.85 7.89485C106.179 7.41787 107.363 7.59766 108.542 7.77668L108.591 7.78403C108.669 7.79598 108.746 7.83318 108.822 7.86991C108.916 7.91575 109.01 7.96088 109.101 7.95528C109.196 7.94862 109.296 7.92524 109.395 7.90188C109.697 7.83101 109.999 7.76027 110.166 8.15674C110.345 8.58048 110.059 8.81237 109.785 9.03512C109.71 9.09656 109.635 9.15729 109.571 9.22116C108.41 10.393 107.453 11.7025 106.543 13.0859C105.923 14.0301 105.192 14.8999 104.461 15.771C104.019 16.297 103.576 16.8235 103.158 17.3671C102.698 17.9663 102.324 18.6212 101.949 19.2771C101.635 19.8267 101.321 20.3771 100.955 20.8961C99.7969 22.5347 98.672 24.2169 97.7352 25.9864C97.3161 26.7776 96.8326 27.5288 96.3496 28.2792C95.7297 29.2424 95.1105 30.2044 94.6293 31.248C94.0686 32.4568 93.3735 33.5716 92.5273 34.6024C92.1345 35.0792 91.8088 35.6299 91.5435 36.1873C91.2077 36.8924 90.7679 37.2014 90.0829 36.7078C89.5379 36.3136 89.0201 36.4509 88.4981 36.5893C88.3576 36.6266 88.2167 36.6639 88.075 36.691C86.8863 36.9227 86.564 36.6574 86.7889 35.4587C87.1684 33.4339 88.1723 31.6577 89.2837 29.9721C90.0464 28.8147 90.675 27.5843 91.3035 26.3543C91.9258 25.1365 92.5479 23.9191 93.2996 22.7731C93.6388 22.256 93.7664 21.796 93.0713 21.3057C92.765 21.091 92.6077 20.6394 92.4577 20.209L92.4577 20.2089C92.4153 20.0874 92.3736 19.9675 92.3292 19.8552C91.5234 17.8137 90.9391 15.7151 90.5194 13.556C90.4078 12.9837 90.1555 12.4546 89.9018 11.9226C89.6211 11.334 89.3387 10.7419 89.2435 10.0841C89.2225 9.93397 89.1789 9.78748 89.1352 9.64085C89.0949 9.50542 89.0545 9.36987 89.0319 9.23123C89.0262 9.19765 89.0201 9.16354 89.0138 9.12911C88.9465 8.75733 88.8726 8.3487 89.3274 8.17352C89.7773 7.99892 90.056 8.27092 90.2676 8.69399C90.4489 9.05663 90.7578 9.40247 91.2212 9.30845C91.5394 9.24287 91.5448 8.99279 91.5502 8.74634C91.5522 8.6521 91.5542 8.55839 91.5737 8.47573C91.6745 8.06273 91.8155 7.62621 92.3057 7.62957C92.562 7.63239 92.8186 7.62654 93.0752 7.62069C93.7364 7.60563 94.3978 7.59056 95.0557 7.7236C95.8952 7.89484 96.3921 8.49251 96.4928 9.22451C96.5564 9.7015 96.6758 10.1648 96.7955 10.629L96.7955 10.6291L96.7955 10.6292L96.7955 10.6293C96.9664 11.2924 97.1377 11.9572 97.1476 12.6662C97.1543 13.1766 97.339 14.0563 98.1012 14.2309C98.7341 14.3741 99.0055 13.8775 99.2487 13.4324C99.2907 13.3556 99.3318 13.2803 99.3738 13.2102C100.197 11.8396 101.16 10.569 102.123 9.29854C102.37 8.97222 102.618 8.64592 102.863 8.31793C102.893 8.27695 102.922 8.23211 102.952 8.18711C103.028 8.06986 103.105 7.95159 103.212 7.89821C103.277 7.86533 103.345 7.8069 103.414 7.74777C103.639 7.55327 103.874 7.35114 104.075 8.02578C104.149 8.29818 104.413 8.13634 104.623 8.007C104.716 7.9498 104.799 7.89896 104.85 7.89485ZM58.4638 36.7928C59.4841 36.8515 60.5037 36.9101 61.5253 36.8737C62.4856 36.8737 63.4426 36.8737 64.4029 36.8703C65.0241 36.8703 65.3364 36.6856 65.4841 35.9503C65.579 35.4781 65.5833 34.9988 65.5876 34.5182V34.5181C65.5946 33.724 65.6017 32.9266 66.018 32.1527C66.3638 31.5113 66.1254 30.8969 64.9435 30.8532C64.0956 30.8204 63.2483 30.8346 62.4014 30.8488C61.3401 30.8665 60.2793 30.8843 59.2185 30.8095C57.9224 30.7189 57.4759 30.0876 57.8922 28.8251C57.9315 28.7061 57.9878 28.5868 58.0441 28.4677C58.1513 28.2406 58.258 28.0146 58.2448 27.7943C58.1376 25.867 58.5945 24.0353 59.0509 22.2059L59.051 22.2057L59.051 22.2056C59.1806 21.6861 59.3101 21.1669 59.4267 20.6456C59.5204 20.2226 59.5487 19.7791 59.5765 19.343V19.3429C59.6145 18.7474 59.6516 18.1654 59.8531 17.6673C60.6657 15.6593 61.3003 13.6514 61.7268 11.5226C61.8157 11.0796 61.7851 10.656 61.7554 10.2446C61.7245 9.81726 61.6946 9.40311 61.8007 8.99419L61.812 8.95115C61.9402 8.46593 62.0206 8.16141 61.5052 7.92978C60.9981 7.70481 60.5784 7.81563 60.246 8.27228L60.2141 8.31683L60.214 8.31694C59.9694 8.65819 59.7236 9.00124 59.4469 9.31654C59.232 9.56166 58.9264 9.58517 58.6343 9.4475C58.3656 9.3199 58.3422 9.09158 58.3489 8.80281C58.3824 7.41606 58.1843 7.2683 56.848 7.61079C56.7631 7.63116 56.6783 7.65953 56.5937 7.68781C56.4272 7.74347 56.2617 7.7988 56.0992 7.79213C54.8064 7.74512 54.4371 8.50061 54.2558 9.63553C54.011 11.1561 53.7281 12.6701 53.4452 14.1844L53.4451 14.1849C53.1964 15.5161 52.9477 16.8477 52.7246 18.1844C52.6213 18.8044 52.5085 19.4235 52.3956 20.0427C51.9586 22.4411 51.5213 24.8408 51.6334 27.304C51.6593 27.8776 51.5469 28.4331 51.434 28.9907L51.4339 28.9909C51.4008 29.1546 51.3676 29.3186 51.3379 29.4832C51.2757 29.8261 51.211 30.1688 51.1464 30.5114L51.1463 30.512L51.1462 30.5126C50.8095 32.297 50.4727 34.0827 50.4783 35.9133C50.4783 35.9456 50.4773 35.9781 50.4763 36.0105C50.4706 36.2035 50.465 36.3912 50.6663 36.4976C50.896 36.6155 51.0414 36.4586 51.1759 36.3134C51.1908 36.2973 51.2056 36.2813 51.2204 36.2659C51.5461 35.9335 52.0766 35.7757 52.2915 36.1047C52.8397 36.9399 53.6391 36.8581 54.3594 36.7845L54.474 36.7729C55.8086 36.64 57.1367 36.7164 58.4638 36.7928ZM78.9319 36.7881C78.343 36.7881 77.754 36.7883 77.1651 36.7885C75.3969 36.7891 73.6287 36.7897 71.8605 36.7847L71.7709 36.7844C71.2185 36.7828 70.6868 36.7813 70.279 36.2206C69.9231 35.727 69.4597 35.821 69.097 36.318C69.0795 36.3419 69.062 36.3671 69.0443 36.3927C68.9133 36.5815 68.7707 36.7871 68.4927 36.6303C68.2509 36.496 68.1905 36.234 68.2173 35.952C68.2272 35.8579 68.2243 35.7593 68.2215 35.6609C68.2166 35.4925 68.2117 35.3251 68.271 35.1831C68.6685 34.2319 68.7284 33.217 68.7877 32.2122C68.8406 31.3157 68.893 30.4272 69.1843 29.5991C69.6187 28.3634 69.6188 27.1119 69.6188 25.8763V25.8762C69.6189 24.896 69.6189 23.9257 69.8358 22.981C69.9841 22.3371 70.0781 21.6853 70.1721 21.0333L70.1721 21.0331L70.1721 21.0329C70.2908 20.2093 70.4096 19.3851 70.6382 18.5756C70.8567 17.7931 70.8884 16.9625 70.9202 16.1289C70.9422 15.5531 70.9642 14.9758 71.0479 14.412C71.3031 12.7029 71.6422 11.0005 72.0485 9.32162C72.2634 8.43182 72.7536 7.6629 73.9054 7.81735C74.2283 7.86093 74.5121 7.73818 74.7972 7.61491C74.8855 7.5767 74.974 7.53844 75.0638 7.50506C76.0342 7.14243 76.4573 7.48492 76.4035 8.51575C76.3982 8.61354 76.3603 8.7268 76.3224 8.83988C76.2406 9.08405 76.159 9.32738 76.4069 9.41229C76.84 9.56339 77.3269 9.34177 77.703 8.96906C77.8201 8.85293 77.9008 8.68334 77.9817 8.51337C78.1697 8.11819 78.3588 7.72092 79.0091 7.98858C79.7623 8.30216 79.6633 8.9356 79.5746 9.50343L79.5746 9.50356C79.5569 9.61666 79.5396 9.72716 79.5296 9.83201C79.2475 12.7768 78.5357 15.6308 77.6828 18.4648C77.5506 18.9051 77.4782 19.3727 77.4052 19.8444C77.3206 20.3907 77.2351 20.9425 77.0549 21.4633C76.6535 22.6238 76.4927 23.8283 76.3319 25.0337C76.1846 26.137 76.0373 27.2412 75.7051 28.3131C75.0906 30.2942 75.8529 30.9993 77.975 30.8851C78.2173 30.8722 78.46 30.8573 78.7029 30.8424L78.7032 30.8424C80.1065 30.756 81.5195 30.6691 82.9277 30.9724C83.7772 31.1538 83.9417 31.607 83.6496 32.3323C83.3541 33.061 83.2198 33.7527 83.3642 34.5787C83.6294 36.0829 82.8941 36.8082 81.373 36.7881C80.7924 36.7809 80.2118 36.7822 79.6325 36.7836H79.6323C79.4008 36.7842 79.1696 36.7847 78.9386 36.7847C78.9346 36.7847 78.933 36.7847 78.9323 36.7854C78.9319 36.7859 78.9319 36.7867 78.9319 36.7881ZM141.571 33.3505C141.508 33.9219 141.445 34.4928 141.363 35.0629C141.353 35.2107 141.346 35.3584 141.342 35.5028C141.337 35.5973 141.318 35.6966 141.299 35.7964C141.239 36.1078 141.179 36.4243 141.517 36.6176C141.916 36.8449 141.99 36.6067 142.068 36.3594C142.116 36.2049 142.166 36.0468 142.296 35.9964C142.422 35.9485 142.518 35.8434 142.615 35.7379C142.77 35.5696 142.925 35.4006 143.199 35.4625C143.554 35.5428 143.545 35.8092 143.537 36.067C143.534 36.1433 143.532 36.2188 143.538 36.2885C143.602 36.9332 144.082 37.1985 144.539 36.9735C144.875 36.8076 145.275 36.831 145.673 36.8544C146.364 36.8948 147.05 36.935 147.386 35.9897C147.397 35.9561 147.397 35.9158 147.393 35.8789C147.341 35.3573 147.454 34.8598 147.567 34.3615C147.6 34.215 147.633 34.0685 147.662 33.9213C147.815 33.1302 147.968 32.3391 148.12 31.5482C148.383 30.1772 148.647 28.8066 148.918 27.4375C149.002 27.0095 149.08 26.579 149.157 26.1484C149.367 24.9877 149.576 23.8256 149.922 22.7064C150.032 22.35 150.147 21.9952 150.262 21.6406C150.713 20.2476 151.163 18.8577 151.332 17.3911C151.39 16.8836 151.487 16.3871 151.585 15.8897C151.757 15.0114 151.93 14.1301 151.889 13.1804C151.825 11.7366 152.289 10.2155 153.085 8.89257C153.33 8.48964 153.229 8.09007 152.826 7.83489C152.4 7.56291 151.03 8.00277 150.785 8.46278C150.429 9.13098 149.73 9.21828 149.378 8.56351C149.129 8.1035 148.904 7.97255 148.434 8.14715C148.115 8.26468 147.816 8.2378 147.497 8.03298C146.369 7.31106 145.573 7.6032 145.201 8.87914C145.037 9.4396 144.947 10.0212 144.857 10.5995C144.772 11.1508 144.687 11.6991 144.539 12.2235C143.894 14.5034 143.532 16.8034 143.411 19.1572C143.404 19.2876 143.415 19.4252 143.427 19.562C143.448 19.8092 143.468 20.0539 143.377 20.2485C142.756 21.5719 142.616 22.9833 142.475 24.3933C142.436 24.7898 142.397 25.1863 142.346 25.5806C142.258 26.272 142.242 26.9764 142.226 27.6773C142.205 28.6035 142.185 29.5236 141.997 30.399C141.787 31.3823 141.679 32.367 141.571 33.3505Z" fill="#FE0000"/>
</svg>