<svg xmlns="http://www.w3.org/2000/svg" width="16" height="17" viewBox="0 0 16 17" fill="none">
<path d="M13.4223 10.6847L10.5957 9.41813L10.5879 9.41453C10.4411 9.35177 10.2811 9.32658 10.1221 9.34125C9.96322 9.35592 9.81046 9.40997 9.67768 9.49853C9.66205 9.50886 9.64702 9.52008 9.63268 9.53213L8.17227 10.7771C7.24706 10.3277 6.29185 9.37973 5.84244 8.46652L7.08925 6.98391C7.10125 6.96891 7.11265 6.95391 7.12346 6.93771C7.21011 6.80529 7.26269 6.6535 7.27651 6.49585C7.29033 6.3382 7.26496 6.17957 7.20266 6.0341V6.0269L5.93244 3.19547C5.85009 3.00543 5.70848 2.84712 5.52875 2.74417C5.34903 2.64122 5.14083 2.59916 4.93523 2.62427C4.12221 2.73125 3.37593 3.13053 2.83577 3.74753C2.29562 4.36454 1.99854 5.15707 2.00001 5.9771C2.00001 10.7411 5.87604 14.6172 10.6401 14.6172C11.4601 14.6187 12.2527 14.3216 12.8697 13.7814C13.4867 13.2413 13.8859 12.495 13.9929 11.682C14.0181 11.4764 13.9761 11.2683 13.8733 11.0886C13.7704 10.9088 13.6122 10.7672 13.4223 10.6847ZM10.6401 13.6572C8.60389 13.6549 6.65172 12.8451 5.21191 11.4053C3.7721 9.96546 2.96224 8.0133 2.96001 5.9771C2.95776 5.39119 3.16885 4.82448 3.55386 4.38283C3.93888 3.94117 4.47149 3.65476 5.05224 3.57708C5.052 3.57947 5.052 3.58188 5.05224 3.58428L6.31225 6.4043L5.07204 7.88872C5.05945 7.9032 5.04801 7.91865 5.03783 7.93492C4.94754 8.07347 4.89457 8.233 4.88406 8.39804C4.87355 8.56308 4.90585 8.72804 4.97783 8.87693C5.52144 9.98874 6.64165 11.1005 7.76546 11.6436C7.91544 11.7149 8.08136 11.746 8.24699 11.7341C8.41263 11.7221 8.57232 11.6673 8.71047 11.5752C8.72588 11.5648 8.7407 11.5536 8.75487 11.5416L10.2135 10.2971L13.0335 11.5602H13.0401C12.9634 12.1417 12.6774 12.6754 12.2357 13.0614C11.7939 13.4473 11.2267 13.6591 10.6401 13.6572Z" fill="white"/>
</svg>