<svg xmlns="http://www.w3.org/2000/svg" width="24" height="25" viewBox="0 0 24 25" fill="none">
  <path d="M0 12.6172C0 19.2446 5.37258 24.6172 12 24.6172C18.6274 24.6172 24 19.2446 24 12.6172C24 5.98977 18.6274 0.617188 12 0.617188C5.37258 0.617188 0 5.98977 0 12.6172Z" fill="#F4F6F7"/>
  <path d="M6.07494 12.3984C9.29616 10.995 11.4441 10.0697 12.5189 9.62272C15.5875 8.34637 16.2251 8.12466 16.6407 8.11726C16.7322 8.11573 16.9365 8.13838 17.0689 8.2458C17.1807 8.33651 17.2115 8.45904 17.2262 8.54504C17.2409 8.63104 17.2592 8.82696 17.2447 8.98004C17.0784 10.7273 16.3588 14.9673 15.9928 16.9242C15.8379 17.7523 15.5329 18.0299 15.2376 18.0571C14.596 18.1161 14.1087 17.633 13.4872 17.2256C12.5147 16.5881 11.9653 16.1913 11.0213 15.5692C9.93032 14.8503 10.6375 14.4551 11.2593 13.8094C11.422 13.6404 14.2492 11.0688 14.3039 10.8355C14.3108 10.8063 14.3171 10.6976 14.2525 10.6401C14.1879 10.5827 14.0926 10.6024 14.0238 10.618C13.9262 10.6401 12.3726 11.667 9.36292 13.6986C8.92193 14.0014 8.5225 14.149 8.16462 14.1412C7.77009 14.1327 7.01117 13.9182 6.44699 13.7348C5.755 13.5098 5.20502 13.3909 5.25291 13.0089C5.27785 12.8099 5.55186 12.6064 6.07494 12.3984Z" fill="#2E424D"/>
</svg>