<svg width="24" height="25" viewBox="0 0 24 25" fill="none" xmlns="http://www.w3.org/2000/svg">
<path d="M0 12.6172C0 5.98977 5.37258 0.617188 12 0.617188C18.6274 0.617188 24 5.98977 24 12.6172C24 19.2446 18.6274 24.6172 12 24.6172C5.37258 24.6172 0 19.2446 0 12.6172Z" fill="#F4F6F7"/>
<path d="M10.8738 11.3425V10.8753C10.7137 10.8539 10.551 10.8406 10.383 10.8406C8.37977 10.8379 6.75 12.4691 6.75 14.4766C6.75 15.7073 7.3635 16.7966 8.30242 17.456C7.69692 16.8072 7.32615 15.9342 7.32615 14.9785C7.32615 13.0003 8.91058 11.3879 10.8738 11.3425Z" fill="#F4F6F7"/>
<path d="M10.9618 16.639C11.8554 16.639 12.5862 15.9262 12.6183 15.0399L12.6209 7.11908H14.0666C14.0373 6.95623 14.0213 6.78805 14.0213 6.61719H12.0474L12.0447 14.538C12.0128 15.4243 11.2819 16.1371 10.3883 16.1371C10.1109 16.1371 9.84949 16.0677 9.61743 15.9449C9.91618 16.364 10.407 16.639 10.9618 16.639Z" fill="#F4F6F7"/>
<path d="M16.7687 9.80734V9.36687C16.2166 9.36687 15.7045 9.20402 15.2723 8.92102C15.6564 9.36153 16.1766 9.6819 16.7687 9.80734Z" fill="#F4F6F7"/>
<path d="M15.2723 8.92113C14.8508 8.43794 14.5975 7.8079 14.5975 7.11914H14.0693C14.2053 7.87198 14.6535 8.51804 15.2723 8.92113Z" fill="#F4F6F7"/>
<path d="M10.3857 12.8134C9.47076 12.8134 8.72656 13.5582 8.72656 14.4739C8.72656 15.1119 9.08932 15.6672 9.61746 15.9449C9.42008 15.6726 9.30272 15.3389 9.30272 14.9758C9.30272 14.0601 10.0469 13.3153 10.9618 13.3153C11.1326 13.3153 11.2979 13.3446 11.4526 13.3927V11.3745C11.2926 11.3531 11.1299 11.3397 10.9618 11.3397C10.9325 11.3397 10.9058 11.3424 10.8765 11.3424V12.8908C10.7191 12.8427 10.5564 12.8134 10.3857 12.8134Z" fill="#F4F6F7"/>
<path d="M16.7687 9.80737V11.3424C15.7444 11.3424 14.7948 11.0141 14.0212 10.4588V14.4766C14.0212 16.4815 12.3915 18.1153 10.3856 18.1153C9.61205 18.1153 8.89186 17.8697 8.30237 17.4559C8.96654 18.1687 9.91347 18.6172 10.9618 18.6172C12.9649 18.6172 14.5974 16.986 14.5974 14.9785V10.9607C15.3709 11.516 16.3205 11.8443 17.3448 11.8443V9.8688C17.1447 9.8688 16.9527 9.84742 16.7687 9.80737Z" fill="#F4F6F7"/>
<path d="M14.0212 14.4766V10.4588C14.7948 11.0141 15.7444 11.3425 16.7687 11.3425V9.80745C16.1765 9.682 15.6564 9.36163 15.2723 8.92113C14.6534 8.51804 14.208 7.87198 14.0666 7.11914H12.6209L12.6182 15.0399C12.5862 15.9262 11.8553 16.639 10.9618 16.639C10.4069 16.639 9.91881 16.3641 9.61473 15.9476C9.08658 15.6673 8.72382 15.1147 8.72382 14.4766C8.72382 13.561 9.46802 12.8161 10.3829 12.8161C10.5536 12.8161 10.719 12.8455 10.8737 12.8935V11.3451C8.91054 11.3879 7.32611 13.0003 7.32611 14.9785C7.32611 15.9342 7.69688 16.8046 8.30237 17.456C8.89186 17.8697 9.61206 18.1154 10.3856 18.1154C12.3888 18.1154 14.0212 16.4815 14.0212 14.4766Z" fill="#2E424D"/>
</svg>
