<svg xmlns="http://www.w3.org/2000/svg" width="29" height="16" viewBox="0 0 29 16" fill="none">
<path d="M6.08636 15.08C4.19465 15.08 2.70733 14.5533 1.6244 13.5C0.541466 12.4467 0 10.9067 0 8.88001V1.92001C0 1.36773 0.447715 0.920013 1 0.920013H1.0562C1.60849 0.920013 2.0562 1.36773 2.0562 1.92001V8.80001C2.0562 10.36 2.40576 11.5 3.10487 12.22C3.81768 12.94 4.81837 13.3 6.10692 13.3C7.40918 13.3 8.40987 12.94 9.10898 12.22C9.82179 11.5 10.1782 10.36 10.1782 8.80001V1.91727C10.1782 1.3665 10.6247 0.920013 11.1755 0.920013C11.7262 0.920013 12.1727 1.3665 12.1727 1.91727V8.88001C12.1727 10.9067 11.6312 12.4467 10.5483 13.5C9.47909 14.5533 7.99177 15.08 6.08636 15.08Z" fill="#2E424D"/>
<path d="M15.4079 14.92C14.7085 14.92 14.2456 14.1939 14.5408 13.5598L20.1566 1.49794C20.3207 1.14542 20.6743 0.920013 21.0631 0.920013H21.8246C22.213 0.920013 22.5663 1.14492 22.7307 1.49684L28.3525 13.5336C28.6541 14.1795 28.1827 14.92 27.4698 14.92C27.087 14.92 26.7397 14.6958 26.5821 14.3469L21.1913 2.41478C21.1119 2.23907 21.2404 2.04001 21.4332 2.04001C21.626 2.04001 21.7545 2.23907 21.6751 2.41478L16.2796 14.3573C16.1248 14.6999 15.7838 14.92 15.4079 14.92ZM17.4983 11.42C17.0995 11.42 16.8198 11.0268 16.9505 10.6501L17.0519 10.3578C17.1636 10.0358 17.467 9.82001 17.8077 9.82001H24.7844C25.1184 9.82001 25.4173 10.0276 25.534 10.3406L25.8618 11.2203C25.8979 11.317 25.8263 11.42 25.7231 11.42H17.4983Z" fill="#2E424D"/>
</svg>