<svg xmlns="http://www.w3.org/2000/svg" width="24" height="24" viewBox="0 0 24 24" fill="none">
  <g clip-path="url(#clip0_378_392)">
    <path d="M11.9867 12.6161C12.6293 12.6161 13.2656 12.4895 13.8592 12.2436C14.4529 11.9977 14.9923 11.6373 15.4467 11.1829C15.9011 10.7285 16.2615 10.1891 16.5074 9.59541C16.7533 9.00174 16.8799 8.36544 16.8799 7.72285C16.8799 7.08026 16.7533 6.44396 16.5074 5.85028C16.2615 5.25661 15.9011 4.71718 15.4467 4.2628C14.9923 3.80842 14.4529 3.44799 13.8592 3.20208C13.2656 2.95617 12.6293 2.8296 11.9867 2.8296C10.6889 2.8296 9.44429 3.34514 8.52662 4.2628C7.60896 5.18046 7.09343 6.42508 7.09343 7.72285C7.09343 9.02062 7.60896 10.2652 8.52662 11.1829C9.44429 12.1006 10.6889 12.6161 11.9867 12.6161ZM11.9943 1.11914C13.4266 1.11867 14.8193 1.58955 15.9574 2.45913C17.0955 3.3287 17.9159 4.54864 18.2919 5.93071C18.6679 7.31279 18.5787 8.7802 18.038 10.1065C17.4972 11.4328 16.5351 12.5444 15.2999 13.2696C19.3102 14.4766 22.3223 17.8562 22.8627 22.0535C22.9138 22.4526 22.617 22.8147 22.1994 22.8636C21.7829 22.9126 21.4024 22.6299 21.3513 22.2308C20.7641 17.6746 16.8179 14.2439 12.0323 14.2439C7.22065 14.2439 3.22341 17.6811 2.63731 22.2308C2.5862 22.6299 2.20562 22.9126 1.78915 22.8636C1.37159 22.8147 1.07473 22.4526 1.12584 22.0535C1.66518 17.8736 4.69356 14.4984 8.71037 13.2805C7.47149 12.5585 6.50495 11.4486 5.96019 10.1222C5.41543 8.79583 5.32278 7.32694 5.69659 5.94263C6.07039 4.55833 6.88981 3.33572 8.02817 2.46384C9.16652 1.59196 10.5604 1.11937 11.9943 1.11914Z" fill="#2E424D" stroke="#2E424D" stroke-width="0.4"/>
  </g>
  <defs>
    <clipPath id="clip0_378_392">
      <rect width="24" height="24" fill="white"/>
    </clipPath>
  </defs>
</svg>