<svg width="24" height="25" viewBox="0 0 24 25" fill="none" xmlns="http://www.w3.org/2000/svg">
<rect y="0.617188" width="24" height="24" rx="12" fill="#F4F6F7"/>
<path d="M13.7199 11.2577C13.7246 11.3553 13.6492 11.4383 13.5516 11.4431C13.4539 11.4478 13.3709 11.3724 13.3661 11.2748C13.3369 10.6696 13.0558 10.3793 12.4747 10.3484C12.3771 10.3432 12.3021 10.2599 12.3073 10.1622C12.3125 10.0646 12.3959 9.98959 12.4935 9.99478C13.2581 10.0354 13.6819 10.4731 13.7199 11.2577Z" fill="#2E424D"/>
<path d="M14.4466 11.7479C14.5444 11.7501 14.6254 11.6726 14.6276 11.5749C14.6434 10.8828 14.4361 10.2984 14.0054 9.82917C13.574 9.35911 12.9789 9.09883 12.2256 9.04535C12.1281 9.03842 12.0434 9.11188 12.0365 9.20943C12.0295 9.30698 12.103 9.39167 12.2006 9.3986C12.8678 9.44597 13.3777 9.66901 13.7445 10.0686C14.1116 10.4686 14.2873 10.9638 14.2736 11.5668C14.2714 11.6646 14.3488 11.7456 14.4466 11.7479Z" fill="#2E424D"/>
<path d="M15.5584 11.933C15.5591 12.0308 15.4805 12.1106 15.3827 12.1114C15.2849 12.1121 15.205 12.0334 15.2043 11.9356C15.1962 10.8581 14.8782 10.0205 14.2514 9.40761C13.6224 8.79459 12.8405 8.48483 11.901 8.47882C11.8032 8.47819 11.7245 8.39841 11.7251 8.30062C11.7257 8.20283 11.8055 8.12406 11.9033 8.12469C12.9329 8.13127 13.8029 8.47595 14.4988 9.15419C15.1972 9.83705 15.5497 10.7655 15.5584 11.933Z" fill="#2E424D"/>
<path d="M12.9022 13.4932C12.7699 13.6592 12.5198 13.6382 12.5198 13.6382C10.7004 13.1739 10.213 11.3313 10.213 11.3313C10.213 11.3313 10.192 11.0834 10.358 10.949L10.6857 10.6884C10.8496 10.5624 10.9525 10.2577 10.7866 9.95941C10.6941 9.79343 10.5092 9.4972 10.3727 9.31021C10.2277 9.11272 9.89154 8.70934 9.88944 8.70724C9.72767 8.51395 9.48816 8.46983 9.23605 8.60009C9.23605 8.60009 9.23394 8.60219 9.23184 8.60219C8.99234 8.73665 8.76963 8.91733 8.56164 9.14634L8.55744 9.15054C8.40197 9.33752 8.31163 9.52241 8.29062 9.70309C8.28641 9.7241 8.28431 9.75141 8.28641 9.78293C8.28431 9.86276 8.29692 9.9405 8.32213 10.0182L8.33053 10.0245C8.40827 10.304 8.60576 10.7683 9.03225 11.5435C9.30958 12.0457 9.59321 12.4658 9.87474 12.8188C10.0218 13.0058 10.1899 13.197 10.3832 13.3924L10.4588 13.468C10.6542 13.6613 10.8454 13.8294 11.0324 13.9764C11.3853 14.258 11.8034 14.5416 12.3076 14.8189C13.0829 15.2454 13.5472 15.4429 13.8266 15.5206L13.8329 15.529C13.9107 15.5543 13.9884 15.5648 14.0682 15.5648C14.0998 15.5669 14.1271 15.5648 14.1481 15.5606C14.3288 15.5395 14.5136 15.4492 14.7006 15.2937L14.7048 15.2895C14.9338 15.0815 15.1145 14.8567 15.249 14.6193C15.249 14.6193 15.2511 14.6172 15.2511 14.6151C15.3813 14.363 15.3372 14.1235 15.1439 13.9617C15.1439 13.9617 14.7384 13.6235 14.541 13.4785C14.3561 13.3419 14.0577 13.1592 13.8918 13.0646C13.5934 12.8986 13.2888 13.0016 13.1627 13.1655L12.9022 13.4932Z" fill="#2E424D"/>
<path fill-rule="evenodd" clip-rule="evenodd" d="M12.2551 5.62724C15.3855 5.64194 16.7911 6.66301 17.1398 6.98235C18.2933 7.98451 18.9341 10.2073 18.5034 13.718C18.1245 16.8199 15.9609 17.3702 15.235 17.5548C15.164 17.5729 15.1067 17.5875 15.0662 17.6006C14.8708 17.6636 13.1417 18.0964 10.8958 17.9073C10.6479 18.1952 10.318 18.5733 10.0806 18.8296C10.0089 18.9069 9.94175 18.9832 9.87758 19.0561C9.55265 19.4253 9.30406 19.7077 8.9251 19.5902C8.54903 19.4746 8.57004 18.9032 8.57004 18.9032L8.57214 17.4934H8.57004C5.28415 16.569 5.33247 13.1634 5.37029 11.3439C5.406 9.52451 5.75896 8.05804 6.76112 7.05589C8.56164 5.40454 12.2551 5.62724 12.2551 5.62724ZM14.8623 16.5728C15.4792 16.4297 17.202 16.0299 17.5201 13.4659C17.8836 10.533 17.3857 8.53076 16.4108 7.69248C16.1167 7.42565 14.8477 6.62939 12.1984 6.61679C12.1984 6.61679 9.06167 6.41089 7.53847 7.78912C6.69179 8.6253 6.40606 9.86907 6.37454 11.3881L6.37111 11.5428C6.33555 13.0962 6.27289 15.8339 8.95872 16.5795C8.95872 16.5795 8.94821 18.733 8.94611 18.9221C8.94611 19.0544 8.96712 19.1448 9.04276 19.1637C9.09738 19.1784 9.17932 19.149 9.24865 19.0797C9.69195 18.6322 11.1143 16.9178 11.1143 16.9178C13.022 17.0438 14.5389 16.6657 14.7027 16.6131C14.7405 16.6011 14.7948 16.5885 14.8623 16.5728Z" fill="#2E424D"/>
</svg>
